<svg xmlns="http://www.w3.org/2000/svg" width="512" height="512" viewBox="0 0 512 512">
  <defs>
    <linearGradient id="sky" x1="0" y1="0" x2="0" y2="1">
      <stop offset="0" stop-color="#FFC65A"/>
      <stop offset="0.52" stop-color="#F2884B"/>
      <stop offset="1" stop-color="#E0455E"/>
    </linearGradient>
  </defs>
  <rect width="512" height="512" rx="0" fill="url(#sky)"/>
  <g fill="#FFF6EA">
    <circle cx="256" cy="246" r="86"/>
    <rect x="244" y="72" width="24" height="50" rx="12" transform="rotate(0 256 246)"/><rect x="244" y="72" width="24" height="50" rx="12" transform="rotate(45 256 246)"/><rect x="244" y="72" width="24" height="50" rx="12" transform="rotate(90 256 246)"/><rect x="244" y="72" width="24" height="50" rx="12" transform="rotate(135 256 246)"/><rect x="244" y="72" width="24" height="50" rx="12" transform="rotate(180 256 246)"/><rect x="244" y="72" width="24" height="50" rx="12" transform="rotate(225 256 246)"/><rect x="244" y="72" width="24" height="50" rx="12" transform="rotate(270 256 246)"/><rect x="244" y="72" width="24" height="50" rx="12" transform="rotate(315 256 246)"/>
  </g>
</svg>